<svg xmlns="http://www.w3.org/2000/svg" viewBox="0 0 80 80" fill="none">
  <ellipse cx="40" cy="40" rx="22" ry="30" fill="#F5F1E5"></ellipse>
  <g stroke="#1A3D2E" stroke-width="1.6" stroke-linecap="round" stroke-linejoin="round" fill="none">
    
    <path d="M14 58 Q 30 56 50 56 T 68 55"></path>
    
    <path d="M58 55 Q 62 49 68 50 Q 66 55 60 56"></path>
    <path d="M61 54 L 66 51"></path>
    
    <ellipse cx="44" cy="42" rx="3.5" ry="2.6" fill="#E74C3C" stroke="none"></ellipse>
    
    <path d="M28 42 Q 28 34 36 31 Q 45 28 51 32 Q 55 36 54 41 Q 53 49 46 53 Q 36 56 30 52 Q 27 48 28 42 Z"></path>
    
    <path d="M44 30 Q 49 30 53 33"></path>
    
    <path d="M54 36 L 60 37 L 54 38"></path>
    
    <circle cx="49" cy="36" r="0.8" fill="#1A3D2E" stroke="none"></circle>
    
    <path d="M32 42 Q 40 46 50 45"></path>
    
    <path d="M28 45 L 12 41 L 22 48"></path>
    <path d="M14 42 L 22 44"></path>
    
    <path d="M37 54 L 36 58"></path>
    <path d="M44 53 L 45 58"></path>
  </g>
</svg>