<svg xmlns="http://www.w3.org/2000/svg" viewBox="0 0 80 80" fill="none">
  <ellipse cx="40" cy="40" rx="22" ry="30" fill="#F5F1E5"></ellipse>
  <g stroke="#1A3D2E" stroke-width="1.6" stroke-linecap="round" stroke-linejoin="round" fill="none">
    
    <path d="M16 60 Q 32 58 50 58 T 66 57"></path>
    
    <path d="M58 57 Q 62 51 68 52 Q 66 56 60 58"></path>
    <path d="M61 56 L 66 53"></path>

    
    <path d="M30 42 Q 28 50 32 56 Q 40 58 46 55 Q 48 49 46 43 Q 38 41 30 42 Z" fill="#F2C94C" stroke="none"></path>

    
    
    <circle cx="48" cy="32" r="6"></circle>
    
    <path d="M54 32 L 60 33 L 54 34"></path>
    
    <path d="M43 32 L 53 32" stroke-width="2.2"></path>
    
    <circle cx="50" cy="32" r="0.9" fill="#1A3D2E" stroke="none"></circle>

    
    <path d="M44 37 Q 34 38 26 44 Q 22 48 24 52 Q 30 58 40 58 Q 48 58 50 52 Q 52 44 48 38"></path>

    
    <path d="M24 50 L 14 48"></path>
    <path d="M24 53 L 14 53"></path>

    
    <path d="M30 46 Q 38 50 46 49"></path>

    
    <path d="M34 58 L 33 60"></path>
    <path d="M42 58 L 43 60"></path>
  </g>
</svg>